{
    "accessors": [
        {
            "bufferView": 0,
            "componentType": 5125,
            "count": 15744,
            "type": "SCALAR"
        },
        {
            "bufferView": 1,
            "componentType": 5126,
            "count": 2834,
            "max": [
                0.41641947627067566,
                0.41641953587532043,
                0.4164194166660309
            ],
            "min": [
                -0.41641953587532043,
                -0.41641953587532043,
                -0.41641950607299805
            ],
            "type": "VEC3"
        },
        {
            "bufferView": 2,
            "componentType": 5126,
            "count": 2834,
            "type": "VEC3"
        },
        {
            "bufferView": 3,
            "componentType": 5126,
            "count": 2834,
            "type": "VEC2"
        },
        {
            "bufferView": 4,
            "componentType": 5125,
            "count": 768,
            "type": "SCALAR"
        },
        {
            "bufferView": 5,
            "componentType": 5126,
            "count": 260,
            "max": [
                1,
                4.1698504560372385e-07,
                0.9999998211860657
            ],
            "min": [
                -1,
                -4.1698504560372385e-07,
                -0.9999998211860657
            ],
            "type": "VEC3"
        },
        {
            "bufferView": 6,
            "componentType": 5126,
            "count": 260,
            "type": "VEC3"
        },
        {
            "bufferView": 7,
            "componentType": 5126,
            "count": 260,
            "type": "VEC2"
        },
        {
            "bufferView": 8,
            "componentType": 5125,
            "count": 15744,
            "type": "SCALAR"
        },
        {
            "bufferView": 9,
            "componentType": 5126,
            "count": 2834,
            "max": [
                0.42474785447120667,
                0.42474791407585144,
                0.4247477948665619
            ],
            "min": [
                -0.42474791407585144,
                -0.42474791407585144,
                -0.42474788427352905
            ],
            "type": "VEC3"
        },
        {
            "bufferView": 10,
            "componentType": 5126,
            "count": 2834,
            "type": "VEC3"
        },
        {
            "bufferView": 11,
            "componentType": 5126,
            "count": 2834,
            "type": "VEC2"
        }
    ],
    "asset": {
        "generator": "Substance Painter 2017.4.0",
        "version": "2.0"
    },
    "bufferViews": [
        {
            "buffer": 0,
            "byteLength": 62976,
            "byteOffset": 0,
            "target": 34963
        },
        {
            "buffer": 0,
            "byteLength": 34008,
            "byteOffset": 62976,
            "target": 34962
        },
        {
            "buffer": 0,
            "byteLength": 34008,
            "byteOffset": 96984,
            "target": 34962
        },
        {
            "buffer": 0,
            "byteLength": 22672,
            "byteOffset": 130992,
            "target": 34962
        },
        {
            "buffer": 0,
            "byteLength": 3072,
            "byteOffset": 153664,
            "target": 34963
        },
        {
            "buffer": 0,
            "byteLength": 3120,
            "byteOffset": 156736,
            "target": 34962
        },
        {
            "buffer": 0,
            "byteLength": 3120,
            "byteOffset": 159856,
            "target": 34962
        },
        {
            "buffer": 0,
            "byteLength": 2080,
            "byteOffset": 162976,
            "target": 34962
        },
        {
            "buffer": 0,
            "byteLength": 62976,
            "byteOffset": 165056,
            "target": 34963
        },
        {
            "buffer": 0,
            "byteLength": 34008,
            "byteOffset": 228032,
            "target": 34962
        },
        {
            "buffer": 0,
            "byteLength": 34008,
            "byteOffset": 262040,
            "target": 34962
        },
        {
            "buffer": 0,
            "byteLength": 22672,
            "byteOffset": 296048,
            "target": 34962
        }
    ],
    "buffers": [
        {
            "byteLength": 318720,
            "uri": "Uranus.bin"
        }
    ],
    "images": [
        {
            "uri": "Uranus_Clouds_Mat_baseColor.png"
        },
        {
            "uri": "UranusGlobe_Mat_baseColor.png"
        },
        {
            "uri": "UranusRings_Stingray_Mat_baseColor.png"
        }
    ],
    "extensions": {
      "KHR_materials_unlit": {}
    },
    "materials": [
        {
            "extensions": {
              "KHR_materials_unlit": {}
            },
            "alphaMode": "BLEND",
            "name": "Uranus_Clouds_Mat",
            "pbrMetallicRoughness": {
                "baseColorTexture": {
                    "index": 0
                }
            }
        },
        {
            "alphaMode": "OPAQUE",
            "name": "UranusGlobe_Mat",
            "pbrMetallicRoughness": {
                "baseColorTexture": {
                    "index": 1
                },
                "metallicFactor": 0,
                "roughnessFactor": 1
            }
        },
        {
            "alphaMode": "BLEND",
            "name": "UranusRings_Stingray_Mat",
            "pbrMetallicRoughness": {
                "baseColorTexture": {
                    "index": 2
                },
                "metallicFactor": 0,
                "roughnessFactor": 0.3
            }
        }
    ],
    "meshes": [
        {
            "name": "Uranus_Globe",
            "primitives": [
                {
                    "attributes": {
                        "NORMAL": 2,
                        "POSITION": 1,
                        "TEXCOORD_0": 3
                    },
                    "indices": 0,
                    "material": 1,
                    "mode": 4
                }
            ]
        },
        {
            "name": "Rings",
            "primitives": [
                {
                    "attributes": {
                        "NORMAL": 6,
                        "POSITION": 5,
                        "TEXCOORD_0": 7
                    },
                    "indices": 4,
                    "material": 2,
                    "mode": 4
                }
            ]
        },
        {
            "name": "Uranus_Clouds",
            "primitives": [
                {
                    "attributes": {
                        "NORMAL": 10,
                        "POSITION": 9,
                        "TEXCOORD_0": 11
                    },
                    "indices": 8,
                    "material": 0,
                    "mode": 4
                }
            ]
        }
    ],
    "nodes": [
        {
            "children": [
                1,
                3,
                5
            ],
            "name": "root",
            "scale": [
                1.0,
                1.0,
                1.0
            ],
            "translation": [
                1.9073486328125e-06,
                0,
                1.9073486328125e-06
            ]
        },
        {
            "children": [
                2
            ],
            "name": "Uranus_Globe"
        },
        {
            "mesh": 0,
            "name": "Uranus_Globe"
        },
        {
            "children": [
                4
            ],
            "name": "Rings"
        },
        {
            "mesh": 1,
            "name": "Rings"
        },
        {
            "children": [
                6
            ],
            "name": "Uranus_Clouds"
        },
        {
            "mesh": 2,
            "name": "Uranus_Clouds"
        }
    ],
    "samplers": [
        {
            "magFilter": 9729,
            "minFilter": 9985,
            "wrapS": 10497,
            "wrapT": 10497
        }
    ],
    "scene": 0,
    "scenes": [
        {
            "name": "Scene",
            "nodes": [
                0
            ]
        }
    ],
    "textures": [
        {
            "sampler": 0,
            "source": 0
        },
        {
            "sampler": 0,
            "source": 1
        },
        {
            "sampler": 0,
            "source": 2
        }
    ]
}
