{
    "accessors": [
        {
            "bufferView": 0,
            "componentType": 5125,
            "count": 15744,
            "type": "SCALAR"
        },
        {
            "bufferView": 1,
            "componentType": 5126,
            "count": 2667,
            "max": [
                0.9615383744239807,
                0.9615384936332703,
                0.9615383148193359
            ],
            "min": [
                -0.9615383744239807,
                -0.9615384936332703,
                -0.9615383148193359
            ],
            "type": "VEC3"
        },
        {
            "bufferView": 2,
            "componentType": 5126,
            "count": 2667,
            "type": "VEC3"
        },
        {
            "bufferView": 3,
            "componentType": 5126,
            "count": 2667,
            "type": "VEC2"
        },
        {
            "bufferView": 4,
            "componentType": 5125,
            "count": 15744,
            "type": "SCALAR"
        },
        {
            "bufferView": 5,
            "componentType": 5126,
            "count": 2667,
            "max": [
                0.980769157409668,
                0.9807692170143127,
                0.9807690382003784
            ],
            "min": [
                -0.980769157409668,
                -0.9807692170143127,
                -0.9807690382003784
            ],
            "type": "VEC3"
        },
        {
            "bufferView": 6,
            "componentType": 5126,
            "count": 2667,
            "type": "VEC3"
        },
        {
            "bufferView": 7,
            "componentType": 5126,
            "count": 2667,
            "type": "VEC2"
        },
        {
            "bufferView": 8,
            "componentType": 5125,
            "count": 15744,
            "type": "SCALAR"
        },
        {
            "bufferView": 9,
            "componentType": 5126,
            "count": 2667,
            "max": [
                0.9903844594955444,
                0.990384578704834,
                0.9903843998908997
            ],
            "min": [
                -0.9903844594955444,
                -0.990384578704834,
                -0.9903843998908997
            ],
            "type": "VEC3"
        },
        {
            "bufferView": 10,
            "componentType": 5126,
            "count": 2667,
            "type": "VEC3"
        },
        {
            "bufferView": 11,
            "componentType": 5126,
            "count": 2667,
            "type": "VEC2"
        },
        {
            "bufferView": 12,
            "componentType": 5125,
            "count": 15744,
            "type": "SCALAR"
        },
        {
            "bufferView": 13,
            "componentType": 5126,
            "count": 2667,
            "max": [
                0.9999998807907104,
                1,
                0.9999998211860657
            ],
            "min": [
                -0.9999998807907104,
                -1,
                -0.9999998211860657
            ],
            "type": "VEC3"
        },
        {
            "bufferView": 14,
            "componentType": 5126,
            "count": 2667,
            "type": "VEC3"
        },
        {
            "bufferView": 15,
            "componentType": 5126,
            "count": 2667,
            "type": "VEC2"
        },
        {
            "bufferView": 16,
            "componentType": 5125,
            "count": 15744,
            "type": "SCALAR"
        },
        {
            "bufferView": 17,
            "componentType": 5126,
            "count": 2667,
            "max": [
                0.9615383744239807,
                0.9615384936332703,
                0.9615383148193359
            ],
            "min": [
                -0.9615383744239807,
                -0.9615384936332703,
                -0.9615383148193359
            ],
            "type": "VEC3"
        },
        {
            "bufferView": 18,
            "componentType": 5126,
            "count": 2667,
            "type": "VEC3"
        },
        {
            "bufferView": 19,
            "componentType": 5126,
            "count": 2667,
            "type": "VEC2"
        }
    ],
    "asset": {
        "generator": "Substance Painter 2017.4.0",
        "version": "2.0"
    },
    "bufferViews": [
        {
            "buffer": 0,
            "byteLength": 62976,
            "byteOffset": 0,
            "target": 34963
        },
        {
            "buffer": 0,
            "byteLength": 32004,
            "byteOffset": 62976,
            "target": 34962
        },
        {
            "buffer": 0,
            "byteLength": 32004,
            "byteOffset": 94980,
            "target": 34962
        },
        {
            "buffer": 0,
            "byteLength": 21336,
            "byteOffset": 126984,
            "target": 34962
        },
        {
            "buffer": 0,
            "byteLength": 62976,
            "byteOffset": 148320,
            "target": 34963
        },
        {
            "buffer": 0,
            "byteLength": 32004,
            "byteOffset": 211296,
            "target": 34962
        },
        {
            "buffer": 0,
            "byteLength": 32004,
            "byteOffset": 243300,
            "target": 34962
        },
        {
            "buffer": 0,
            "byteLength": 21336,
            "byteOffset": 275304,
            "target": 34962
        },
        {
            "buffer": 0,
            "byteLength": 62976,
            "byteOffset": 296640,
            "target": 34963
        },
        {
            "buffer": 0,
            "byteLength": 32004,
            "byteOffset": 359616,
            "target": 34962
        },
        {
            "buffer": 0,
            "byteLength": 32004,
            "byteOffset": 391620,
            "target": 34962
        },
        {
            "buffer": 0,
            "byteLength": 21336,
            "byteOffset": 423624,
            "target": 34962
        },
        {
            "buffer": 0,
            "byteLength": 62976,
            "byteOffset": 444960,
            "target": 34963
        },
        {
            "buffer": 0,
            "byteLength": 32004,
            "byteOffset": 507936,
            "target": 34962
        },
        {
            "buffer": 0,
            "byteLength": 32004,
            "byteOffset": 539940,
            "target": 34962
        },
        {
            "buffer": 0,
            "byteLength": 21336,
            "byteOffset": 571944,
            "target": 34962
        },
        {
            "buffer": 0,
            "byteLength": 62976,
            "byteOffset": 593280,
            "target": 34963
        },
        {
            "buffer": 0,
            "byteLength": 32004,
            "byteOffset": 656256,
            "target": 34962
        },
        {
            "buffer": 0,
            "byteLength": 32004,
            "byteOffset": 688260,
            "target": 34962
        },
        {
            "buffer": 0,
            "byteLength": 21336,
            "byteOffset": 720264,
            "target": 34962
        }
    ],
    "buffers": [
        {
            "byteLength": 741600,
            "uri": "Venus.bin"
        }
    ],
    "images": [
        {
            "uri": "Venus_Atmosphere_Mat_baseColor.png"
        },
        {
            "uri": "Venus_Atmosphere_Mat_occlusionRoughnessMetallic.png"
        },
        {
            "uri": "Venus_Terrain_Mat_baseColor.png"
        },
        {
            "uri": "Venus_Terrain_Mat_normal.png"
        }
    ],
    "materials": [
        {
            "alphaMode": "BLEND",
            "name": "Venus_Atmosphere_Mat",
            "pbrMetallicRoughness": {
                "baseColorTexture": {
                    "index": 0
                },
                "metallicRoughnessTexture": {
                    "index": 1
                }
            }
        },
        {
            "alphaMode": "OPAQUE",
            "name": "Venus_Terrain_Mat",
            "normalTexture": {
                "index": 3
            },
            "pbrMetallicRoughness": {
                "baseColorTexture": {
                    "index": 2
                },
                "metallicFactor": 0,
                "roughnessFactor": 1
            }
        }
    ],
    "meshes": [
        {
            "name": "Venus_Atmosphere_01",
            "primitives": [
                {
                    "attributes": {
                        "NORMAL": 2,
                        "POSITION": 1,
                        "TEXCOORD_0": 3
                    },
                    "indices": 0,
                    "material": 0,
                    "mode": 4
                }
            ]
        },
        {
            "name": "Venus_Atmosphere_02",
            "primitives": [
                {
                    "attributes": {
                        "NORMAL": 6,
                        "POSITION": 5,
                        "TEXCOORD_0": 7
                    },
                    "indices": 4,
                    "material": 0,
                    "mode": 4
                }
            ]
        },
        {
            "name": "Venus_Atmosphere_03",
            "primitives": [
                {
                    "attributes": {
                        "NORMAL": 10,
                        "POSITION": 9,
                        "TEXCOORD_0": 11
                    },
                    "indices": 8,
                    "material": 0,
                    "mode": 4
                }
            ]
        },
        {
            "name": "Venus_Atmosphere_04",
            "primitives": [
                {
                    "attributes": {
                        "NORMAL": 14,
                        "POSITION": 13,
                        "TEXCOORD_0": 15
                    },
                    "indices": 12,
                    "material": 0,
                    "mode": 4
                }
            ]
        },
        {
            "name": "Venus",
            "primitives": [
                {
                    "attributes": {
                        "NORMAL": 18,
                        "POSITION": 17,
                        "TEXCOORD_0": 19
                    },
                    "indices": 16,
                    "material": 1,
                    "mode": 4
                }
            ]
        }
    ],
    "nodes": [
        {
            "children": [
                1,
                3,
                5,
                7,
                9
            ],
            "name": "root",
            "scale": [
                1.0,
                1.0,
                1.0
            ],
            "translation": [
                9.5367431640625e-07,
                0,
                9.5367431640625e-07
            ]
        },
        {
            "children": [
                2
            ],
            "name": "Venus_Atmosphere_01"
        },
        {
            "mesh": 0,
            "name": "Venus_Atmosphere_01"
        },
        {
            "children": [
                4
            ],
            "name": "Venus_Atmosphere_02"
        },
        {
            "mesh": 1,
            "name": "Venus_Atmosphere_02"
        },
        {
            "children": [
                6
            ],
            "name": "Venus_Atmosphere_03"
        },
        {
            "mesh": 2,
            "name": "Venus_Atmosphere_03"
        },
        {
            "children": [
                8
            ],
            "name": "Venus_Atmosphere_04"
        },
        {
            "mesh": 3,
            "name": "Venus_Atmosphere_04"
        },
        {
            "children": [
                10
            ],
            "name": "Venus"
        },
        {
            "mesh": 4,
            "name": "Venus"
        }
    ],
    "samplers": [
        {
            "magFilter": 9729,
            "minFilter": 9985,
            "wrapS": 10497,
            "wrapT": 10497
        }
    ],
    "scene": 0,
    "scenes": [
        {
            "name": "Scene",
            "nodes": [
                0
            ]
        }
    ],
    "textures": [
        {
            "sampler": 0,
            "source": 0
        },
        {
            "sampler": 0,
            "source": 1
        },
        {
            "sampler": 0,
            "source": 2
        },
        {
            "sampler": 0,
            "source": 3
        }
    ]
}
