{
    "accessors": [
        {
            "bufferView": 0,
            "componentType": 5125,
            "count": 15744,
            "type": "SCALAR"
        },
        {
            "bufferView": 1,
            "componentType": 5126,
            "count": 2834,
            "max": [
                0.9999999403953552,
                1,
                0.9999998211860657
            ],
            "min": [
                -0.9999999403953552,
                -1,
                -0.9999998211860657
            ],
            "type": "VEC3"
        },
        {
            "bufferView": 2,
            "componentType": 5126,
            "count": 2834,
            "type": "VEC3"
        },
        {
            "bufferView": 3,
            "componentType": 5126,
            "count": 2834,
            "type": "VEC2"
        }
    ],
    "asset": {
        "generator": "Substance Painter 2017.4.0",
        "version": "2.0"
    },
    "bufferViews": [
        {
            "buffer": 0,
            "byteLength": 62976,
            "byteOffset": 0,
            "target": 34963
        },
        {
            "buffer": 0,
            "byteLength": 34008,
            "byteOffset": 62976,
            "target": 34962
        },
        {
            "buffer": 0,
            "byteLength": 34008,
            "byteOffset": 96984,
            "target": 34962
        },
        {
            "buffer": 0,
            "byteLength": 22672,
            "byteOffset": 130992,
            "target": 34962
        }
    ],
    "buffers": [
        {
            "byteLength": 153664,
            "uri": "Luna.bin"
        }
    ],
    "images": [
        {
            "uri": "Luna_Mat_baseColor.png"
        },
        {
            "uri": "Luna_Mat_occlusionRoughnessMetallic.png"
        },
        {
            "uri": "Luna_Mat_normal.png"
        }
    ],
    "materials": [
        {
            "alphaMode": "OPAQUE",
            "name": "Luna_Mat",
            "normalTexture": {
                "index": 2
            },
            "pbrMetallicRoughness": {
                "baseColorTexture": {
                    "index": 0
                },
                "metallicRoughnessTexture": {
                    "index": 1
                }
            }
        }
    ],
    "meshes": [
        {
            "name": "Luna",
            "primitives": [
                {
                    "attributes": {
                        "NORMAL": 2,
                        "POSITION": 1,
                        "TEXCOORD_0": 3
                    },
                    "indices": 0,
                    "material": 0,
                    "mode": 4
                }
            ]
        }
    ],
    "nodes": [
        {
            "children": [
                1
            ],
            "name": "root",
            "scale": [
                1.0,
                1.0,
                1.0
            ],
            "translation": [
                9.5367431640625e-07,
                0,
                9.5367431640625e-07
            ]
        },
        {
            "children": [
                2
            ],
            "name": "Luna"
        },
        {
            "mesh": 0,
            "name": "Luna"
        }
    ],
    "samplers": [
        {
            "magFilter": 9729,
            "minFilter": 9985,
            "wrapS": 10497,
            "wrapT": 10497
        }
    ],
    "scene": 0,
    "scenes": [
        {
            "name": "Scene",
            "nodes": [
                0
            ]
        }
    ],
    "textures": [
        {
            "sampler": 0,
            "source": 0
        },
        {
            "sampler": 0,
            "source": 1
        },
        {
            "sampler": 0,
            "source": 2
        }
    ]
}
