{
    "accessors": [
        {
            "bufferView": 0,
            "componentType": 5125,
            "count": 15744,
            "type": "SCALAR"
        },
        {
            "bufferView": 1,
            "componentType": 5126,
            "count": 2667,
            "max": [
                0.9803920984268188,
                0.9803921580314636,
                0.9803919792175293
            ],
            "min": [
                -0.9803920984268188,
                -0.9803921580314636,
                -0.9803919792175293
            ],
            "type": "VEC3"
        },
        {
            "bufferView": 2,
            "componentType": 5126,
            "count": 2667,
            "type": "VEC3"
        },
        {
            "bufferView": 3,
            "componentType": 5126,
            "count": 2667,
            "type": "VEC2"
        },
        {
            "bufferView": 4,
            "componentType": 5125,
            "count": 15744,
            "type": "SCALAR"
        },
        {
            "bufferView": 5,
            "componentType": 5126,
            "count": 2667,
            "max": [
                0.9803920984268188,
                0.9803921580314636,
                0.9803919792175293
            ],
            "min": [
                -0.9803920984268188,
                -0.9803921580314636,
                -0.9803919792175293
            ],
            "type": "VEC3"
        },
        {
            "bufferView": 6,
            "componentType": 5126,
            "count": 2667,
            "type": "VEC3"
        },
        {
            "bufferView": 7,
            "componentType": 5126,
            "count": 2667,
            "type": "VEC2"
        },
        {
            "bufferView": 8,
            "componentType": 5125,
            "count": 15744,
            "type": "SCALAR"
        },
        {
            "bufferView": 9,
            "componentType": 5126,
            "count": 2667,
            "max": [
                0.9999998807907104,
                1,
                0.9999998211860657
            ],
            "min": [
                -0.9999998807907104,
                -1,
                -0.9999998211860657
            ],
            "type": "VEC3"
        },
        {
            "bufferView": 10,
            "componentType": 5126,
            "count": 2667,
            "type": "VEC3"
        },
        {
            "bufferView": 11,
            "componentType": 5126,
            "count": 2667,
            "type": "VEC2"
        }
    ],
    "asset": {
        "generator": "Substance Painter 2017.4.0",
        "version": "2.0"
    },
    "bufferViews": [
        {
            "buffer": 0,
            "byteLength": 62976,
            "byteOffset": 0,
            "target": 34963
        },
        {
            "buffer": 0,
            "byteLength": 32004,
            "byteOffset": 62976,
            "target": 34962
        },
        {
            "buffer": 0,
            "byteLength": 32004,
            "byteOffset": 94980,
            "target": 34962
        },
        {
            "buffer": 0,
            "byteLength": 21336,
            "byteOffset": 126984,
            "target": 34962
        },
        {
            "buffer": 0,
            "byteLength": 62976,
            "byteOffset": 148320,
            "target": 34963
        },
        {
            "buffer": 0,
            "byteLength": 32004,
            "byteOffset": 211296,
            "target": 34962
        },
        {
            "buffer": 0,
            "byteLength": 32004,
            "byteOffset": 243300,
            "target": 34962
        },
        {
            "buffer": 0,
            "byteLength": 21336,
            "byteOffset": 275304,
            "target": 34962
        },
        {
            "buffer": 0,
            "byteLength": 62976,
            "byteOffset": 296640,
            "target": 34963
        },
        {
            "buffer": 0,
            "byteLength": 32004,
            "byteOffset": 359616,
            "target": 34962
        },
        {
            "buffer": 0,
            "byteLength": 32004,
            "byteOffset": 391620,
            "target": 34962
        },
        {
            "buffer": 0,
            "byteLength": 21336,
            "byteOffset": 423624,
            "target": 34962
        }
    ],
    "buffers": [
        {
            "byteLength": 444960,
            "uri": "Jupiter.bin"
        }
    ],
    "images": [
        {
            "uri": "Jupiter_Mat_baseColor.png"
        },
        {
            "uri": "JupiterClouds_Mat_baseColor.png"
        }
    ],
    "materials": [
        {
            "alphaMode": "OPAQUE",
            "name": "Jupiter_Mat",
            "pbrMetallicRoughness": {
                "baseColorTexture": {
                    "index": 0
                },
                "metallicFactor": 0,
                "roughnessFactor": 1
            }
        },
        {
            "alphaMode": "BLEND",
            "name": "JupiterClouds_Mat",
            "pbrMetallicRoughness": {
                "baseColorTexture": {
                    "index": 1
                },
                "metallicFactor": 0,
                "roughnessFactor": 1
            }
        }
    ],
    "meshes": [
        {
            "name": "Jupiter_Opaque",
            "primitives": [
                {
                    "attributes": {
                        "NORMAL": 2,
                        "POSITION": 1,
                        "TEXCOORD_0": 3
                    },
                    "indices": 0,
                    "material": 0,
                    "mode": 4
                }
            ]
        },
        {
            "name": "Jupiter_Clouds_01",
            "primitives": [
                {
                    "attributes": {
                        "NORMAL": 6,
                        "POSITION": 5,
                        "TEXCOORD_0": 7
                    },
                    "indices": 4,
                    "material": 1,
                    "mode": 4
                }
            ]
        },
        {
            "name": "Jupiter_Clouds_02",
            "primitives": [
                {
                    "attributes": {
                        "NORMAL": 10,
                        "POSITION": 9,
                        "TEXCOORD_0": 11
                    },
                    "indices": 8,
                    "material": 1,
                    "mode": 4
                }
            ]
        }
    ],
    "nodes": [
        {
            "children": [
                1,
                3,
                5
            ],
            "name": "root",
            "scale": [
                1.0,
                1.0,
                1.0
            ],
            "translation": [
                9.5367431640625e-07,
                0,
                9.5367431640625e-07
            ]
        },
        {
            "children": [
                2
            ],
            "name": "Jupiter_Opaque"
        },
        {
            "mesh": 0,
            "name": "Jupiter_Opaque"
        },
        {
            "children": [
                4
            ],
            "name": "Jupiter_Clouds_01"
        },
        {
            "mesh": 1,
            "name": "Jupiter_Clouds_01"
        },
        {
            "children": [
                6
            ],
            "name": "Jupiter_Clouds_02"
        },
        {
            "mesh": 2,
            "name": "Jupiter_Clouds_02"
        }
    ],
    "samplers": [
        {
            "magFilter": 9729,
            "minFilter": 9985,
            "wrapS": 10497,
            "wrapT": 10497
        }
    ],
    "scene": 0,
    "scenes": [
        {
            "name": "Scene",
            "nodes": [
                0
            ]
        }
    ],
    "textures": [
        {
            "sampler": 0,
            "source": 0
        },
        {
            "sampler": 0,
            "source": 1
        }
    ]
}
